General
Unique ID                                : 85207011396123144010565797924821865750 (0x401A46024209F3BBDA707B62C2911516)
Complete name                            : SiM - CAPTAiN HOOK [WEB-DL 1080p AAC x264-SEKAI].mkv
Format                                   : Matroska
Format version                           : Version 4
File size                                : 278 MiB
Duration                                 : 3 min 49 s
Overall bit rate                         : 10.2 Mb/s
Frame rate                               : 23.976 FPS
Title                                    : SiM - CAPTAiN HOOK [WEB-DL 1080p AAC x264-SEKAI]
Encoded date                             : 2025-08-12 15:04:25 UTC
Writing application                      : mkvmerge 94.0 ('Initiate') 64-bit
Writing library                          : libebml v1.4.5 + libmatroska v1.7.1
Website                                  : https://sekai-archivist.blogspot.com/

Video
ID                                       : 1
Format                                   : AVC
Format/Info                              : Advanced Video Codec
Format profile                           : High@L4
Format settings                          : CABAC / 4 Ref Frames
Format settings, CABAC                   : Yes
Format settings, Reference frames        : 4 frames
Format settings, Slice count             : 8 slices per frame
Codec ID                                 : V_MPEG4/ISO/AVC
Duration                                 : 3 min 49 s
Bit rate                                 : 9 927 kb/s
Width                                    : 1 912 pixels
Height                                   : 956 pixels
Display aspect ratio                     : 2.000
Frame rate mode                          : Constant
Frame rate                               : 23.976 (24000/1001) FPS
Color space                              : YUV
Chroma subsampling                       : 4:2:0 (Type 2)
Bit depth                                : 8 bits
Scan type                                : Progressive
Bits/(Pixel*Frame)                       : 0.227
Stream size                              : 271 MiB (97%)
Language                                 : Japanese
Default                                  : Yes
Forced                                   : No
Color range                              : Limited
Color primaries                          : BT.709
Transfer characteristics                 : BT.709
Matrix coefficients                      : BT.709

Audio
ID                                       : 2
Format                                   : AAC LC
Format/Info                              : Advanced Audio Codec Low Complexity
Codec ID                                 : A_AAC-2
Duration                                 : 3 min 49 s
Bit rate                                 : 254 kb/s
Channel(s)                               : 2 channels
Channel layout                           : L R
Sampling rate                            : 48.0 kHz
Frame rate                               : 46.875 FPS (1024 SPF)
Compression mode                         : Lossy
Stream size                              : 6.96 MiB (2%)
Language                                 : Japanese
Default                                  : Yes
Forced                                   : No


